<?xml version="1.0" encoding="utf-8"?><svg version="1.2" xmlns="http://www.w3.org/2000/svg" width="336" height="248" viewBox="0 0 336 248"><style>.ha{fill:#292929}</style><path fill-rule="evenodd" class="ha" d="M290.8 247.6H45c-24.8 0-45-20.2-45-45V45.2C0 20.4 20.2.2 45 .2h245.8c24.8 0 45 20.2 45 45v157.4c0 24.8-20.2 45-45 45zM45 13c-17.7 0-32.1 14.4-32.1 32.2v157.4c0 17.8 14.4 32.2 32.1 32.2h245.8c17.7 0 32.1-14.4 32.1-32.2V45.2c0-17.8-14.4-32.2-32.1-32.2zm186.8 25c7.8 0 15 3.1 20.2 8.2-5.4 5.3-8.8 12.6-8.8 20.8 0 8.2 3.4 15.6 8.8 20.8-5.2 5.1-12.4 8.2-20.2 8.2-16.1 0-29.1-13-29.1-29s13-29 29.1-29zm20.2 8.2c5.2-5.1 12.4-8.2 20.3-8.2 16 0 29 13 29 29s-13 29-29 29c-7.9 0-15.1-3.1-20.3-8.2 5.4-5.2 8.8-12.6 8.8-20.8 0-8.2-3.4-15.5-8.8-20.8zM34.6 172.6h53.5v19.3H34.6zm71 0h53.6v19.3h-53.6zm71.1 0h53.5v19.3h-53.5zm71 0h53.6v19.3h-53.6zM34.6 37.9h101.2v19.3H34.6zm0 38.2h53.5v19.3H34.6z"/></svg>