<?xml version="1.0" encoding="utf-8"?><svg version="1.2" xmlns="http://www.w3.org/2000/svg" width="438" height="282" viewBox="0 0 438 282"><style>.ia{fill:#f1cdb3}</style><path fill-rule="evenodd" class="ia" d="M438 8.2v265.5c0 4.2-3.4 7.5-7.5 7.5H7.5c-4.1 0-7.5-3.3-7.5-7.5V8.2C0 4.1 3.4.7 7.5.7h423c4.1 0 7.5 3.4 7.5 7.5zm-25.5 7.5h-387L219 211.6l30.4-30.8c-2.5-6.9-.9-14.4.6-21.1.8-3.8 1.6-7.3 1.6-10.3 0-3-.8-6.5-1.6-10.2-1.7-7.8-3.6-16.5.9-24.3 4.6-8 13.3-10.7 21-13.1 3.5-1.1 6.8-2.2 9.2-3.5 2.3-1.3 4.7-3.6 7.3-6.1 5.7-5.3 12.7-11.8 22.3-11.8 9.6 0 16.6 6.5 22.2 11.8q1.1 1 2.1 2zm-57.7 133.7c0-4.7 1-9.2 1.9-13.5 1.2-5.4 2.4-10.9.8-13.6-1.7-2.9-7.1-4.6-12.4-6.3-4.2-1.3-8.5-2.6-12.4-4.8-3.7-2.2-6.9-5.2-10-8.1-4.3-4-8.4-7.8-12-7.8-3.7 0-7.7 3.8-12 7.8-3.1 2.9-6.3 5.9-10 8.1-3.9 2.2-8.2 3.5-12.4 4.8-5.3 1.7-10.8 3.4-12.4 6.3-1.6 2.7-.4 8.2.8 13.6.9 4.3 1.9 8.8 1.9 13.5 0 4.6-1 9.1-1.9 13.5-1.2 5.3-2.4 10.8-.8 13.5 1.6 2.9 7.1 4.6 12.4 6.3 4.2 1.3 8.5 2.6 12.4 4.8 3.7 2.2 6.9 5.2 10 8.1 4.3 4 8.3 7.8 12 7.8 3.6 0 7.7-3.8 12-7.8 3.1-2.9 6.3-5.9 10-8.1 3.9-2.2 8.2-3.5 12.4-4.8 5.3-1.7 10.7-3.4 12.4-6.3 1.6-2.7.4-8.2-.8-13.5-.9-4.4-1.9-8.9-1.9-13.5zM15 26.4v229l113.1-114.5zm10.5 239.7h387l-67-67.8c-2 .6-3.8 1.4-5.3 2.2-2.2 1.3-4.6 3.6-7.3 6-5.6 5.3-12.6 11.9-22.2 11.9s-16.6-6.6-22.2-11.9c-2.6-2.4-5.1-4.7-7.3-6-2.4-1.4-5.8-2.4-9.3-3.5-4.2-1.3-8.6-2.7-12.5-5l-35.1 35.5c-1.4 1.4-3.3 2.2-5.3 2.2s-3.9-.8-5.3-2.2l-75-75.9zM423 255.3v-229l-74.2 75.1q.4.1.7.2c7.7 2.4 16.4 5.1 21 13.1 4.5 7.8 2.6 16.6.9 24.3-.8 3.7-1.6 7.3-1.6 10.3 0 3 .8 6.5 1.6 10.2 1.7 7.8 3.6 16.5-.9 24.3-2.3 4.1-5.7 6.8-9.5 8.8z"/><path fill-rule="evenodd" class="ia" d="M348.9 149.4c0 21.1-17.2 38.2-38.2 38.2-21.1 0-38.2-17.1-38.2-38.2 0-21 17.1-38.2 38.2-38.2 21 0 38.2 17.2 38.2 38.2zm-15 0c0-12.8-10.4-23.2-23.2-23.2-12.8 0-23.2 10.4-23.2 23.2 0 12.8 10.4 23.2 23.2 23.2 12.8 0 23.2-10.4 23.2-23.2z"/></svg>