<svg version="1.2" xmlns="http://www.w3.org/2000/svg" viewBox="0 0 336 248" width="336" height="248"><style>.a{fill:#292929}</style><path fill-rule="evenodd" class="a" d="m290.8 247.6h-245.8c-24.8 0-45-20.2-45-45v-157.4c0-24.8 20.2-45 45-45h245.8c24.8 0 45 20.2 45 45v157.4c0 24.8-20.2 45-45 45zm-245.8-234.6c-17.7 0-32.1 14.4-32.1 32.2v157.4c0 17.8 14.4 32.2 32.1 32.2h245.8c17.7 0 32.1-14.4 32.1-32.2v-157.4c0-17.8-14.4-32.2-32.1-32.2zm186.8 25c7.8 0 15 3.1 20.2 8.2-5.4 5.3-8.8 12.6-8.8 20.8 0 8.2 3.4 15.6 8.8 20.8-5.2 5.1-12.4 8.2-20.2 8.2-16.1 0-29.1-13-29.1-29 0-16 13-29 29.1-29zm20.2 8.2c5.2-5.1 12.4-8.2 20.3-8.2 16 0 29 13 29 29 0 16-13 29-29 29-7.9 0-15.1-3.1-20.3-8.2 5.4-5.2 8.8-12.6 8.8-20.8 0-8.2-3.4-15.5-8.8-20.8zm-217.4 126.4h53.5v19.3h-53.5zm71 0h53.6v19.3h-53.6zm71.1 0h53.5v19.3h-53.5zm71 0h53.6v19.3h-53.6zm-213.1-134.7h101.2v19.3h-101.2zm0 38.2h53.5v19.3h-53.5z"/></svg>