<svg version="1.2" xmlns="http://www.w3.org/2000/svg" viewBox="0 0 342 512" width="342" height="512"><style>.a{fill:#f1cdb3}</style><path fill-rule="evenodd" class="a" d="m341.7 170.7c0 28.2-7.1 56.2-20.5 81l-140.9 254.8c-1.8 3.4-5.4 5.5-9.3 5.5-3.9 0-7.5-2.1-9.3-5.5l-140.9-254.7c-13.4-24.9-20.5-52.9-20.5-81.1 0-94.1 76.6-170.7 170.7-170.7 94.1 0 170.7 76.6 170.7 170.7zm-21.4 0c0-82.4-67-149.4-149.3-149.4-82.3 0-149.3 67-149.3 149.4 0 24.7 6.1 49.2 17.8 70.8l131.5 237.8 131.5-237.9c11.7-21.5 17.8-46 17.8-70.7z"/><path fill-rule="evenodd" class="a" d="m256.3 170.7c0 47-38.2 85.3-85.3 85.3-47.1 0-85.3-38.3-85.3-85.3 0-47.1 38.2-85.4 85.3-85.4 47.1 0 85.3 38.3 85.3 85.4zm-21.3 0c0-35.3-28.7-64-64-64-35.3 0-64 28.7-64 64 0 35.3 28.7 64 64 64 35.3 0 64-28.7 64-64z"/></svg>