<svg version="1.2" xmlns="http://www.w3.org/2000/svg" viewBox="0 0 428 334" width="428" height="334"><style>.a{fill:#f1cdb3}</style><path fill-rule="evenodd" class="a" d="m427.5 98.2l-10.4 29.2c-1.1 3-4 5-7.1 5q-0.7 0-1.5-0.2l-99-19.8c-3-0.6-5.4-3-5.9-6.1l-8.6-50.8c-47.2-11.8-114.9-11.8-162.1 0l-8.6 50.8c-0.5 3.1-2.8 5.5-5.9 6.1l-99 19.8c-3.7 0.7-7.3-1.3-8.5-4.8l-10.5-29.2c-0.6-1.8-0.5-3.7 0.2-5.4l26-62.6c0.9-2.1 2.8-3.7 5.1-4.3l31.3-8.1c91.7-23.8 210.2-23.8 301.9 0l31.3 8.1c2.3 0.6 4.2 2.2 5.1 4.3l26 62.6c0.8 1.7 0.8 3.6 0.2 5.4zm-317.1 0.5l3-17.5-95.9 20.1 5.3 14.9zm193.2-56.4c2.8 0.8 4.9 3.1 5.4 6l2.9 17 96.1 20.1-19.1-45.9-27.7-7.2c-89.5-23.2-205-23.2-294.4 0l-27.8 7.2-19.1 45.9 96.1-20.1 2.9-17c0.5-2.9 2.6-5.2 5.4-6 51.1-14.1 128.2-14.1 179.3 0zm106.9 59l-96-20.1 3 17.5 87.6 17.6z"/><path fill-rule="evenodd" class="a" d="m390.8 293.2q0.2 0.8 0.2 1.6v31.7c0 4.1-3.4 7.5-7.5 7.5h-339.1c-4.1 0-7.5-3.4-7.5-7.5v-31.7q0-0.8 0.2-1.6l34.7-156.3c0.6-2.9 2.9-5.1 5.7-5.7l51.1-10.9 6.4-41.9c0.6-3.7 3.8-6.4 7.5-6.4h20v-9.8c0-4.2 3.3-7.5 7.5-7.5 4.1 0 7.5 3.3 7.5 7.5v9.8h73v-9.8c0-4.2 3.3-7.5 7.5-7.5 4.1 0 7.5 3.3 7.5 7.5v9.8h20c3.7 0 6.8 2.7 7.4 6.4l6.4 41.9 51.1 10.9c2.9 0.6 5.1 2.8 5.7 5.7zm-337-5.9h320.4l-31.6-142.5-51.5-10.9c-3-0.7-5.3-3.2-5.8-6.2l-6.3-40.7h-130.1l-6.2 40.7c-0.5 3-2.8 5.5-5.9 6.2l-51.4 10.9zm61 15l-9.6 16.8h11.4l9.6-16.8zm19.1 16.8h163.2l9.7-16.8h-163.2zm-82 0h35.9l9.7-16.7h-45.6zm324.1 0v-16.7h-51.9l-9.7 16.7z"/><path fill-rule="evenodd" class="a" d="m133.5 192.5c0-44.4 36.1-80.5 80.5-80.5 44.3 0 80.5 36.1 80.5 80.5 0 44.4-36.2 80.5-80.5 80.5-44.4 0-80.5-36.1-80.5-80.5zm15 0c0 36.2 29.3 65.5 65.5 65.5 36.1 0 65.5-29.3 65.5-65.5 0-36.1-29.4-65.5-65.5-65.5-36.2 0-65.5 29.4-65.5 65.5z"/><path fill-rule="evenodd" class="a" d="m185.4 192.5c0-15.7 12.8-28.5 28.6-28.5 15.7 0 28.5 12.8 28.5 28.5 0 15.8-12.8 28.6-28.5 28.6-15.8 0-28.6-12.8-28.6-28.6zm15 0c0 7.5 6.1 13.6 13.6 13.6 7.4 0 13.5-6.1 13.5-13.6 0-7.4-6.1-13.5-13.5-13.5-7.5 0-13.6 6.1-13.6 13.5z"/></svg>